{
  "accessors": [
    {
      "bufferView": 2,
      "componentType": 5126,
      "count": 319,
      "max": [
        31.84358024597168,
        -7.0808563232421875,
        52.69200134277344
      ],
      "min": [
        -32.25037384033203,
        -11.97403335571289,
        15.583000183105469
      ],
      "type": "VEC3"
    },
    {
      "bufferView": 2,
      "byteOffset": 3828,
      "componentType": 5126,
      "count": 319,
      "max": [
        0.9999998807907104,
        0.9999950528144836,
        1.0
      ],
      "min": [
        -0.9994213581085205,
        -0.9999950528144836,
        -1.0
      ],
      "type": "VEC3"
    },
    {
      "bufferView": 1,
      "componentType": 5126,
      "count": 319,
      "max": [
        37.10900115966797,
        37.10900115966797
      ],
      "min": [
        -37.10900115966797,
        -64.70567321777344
      ],
      "type": "VEC2"
    },
    {
      "bufferView": 0,
      "componentType": 5125,
      "count": 1002,
      "type": "SCALAR"
    },
    {
      "bufferView": 2,
      "byteOffset": 7656,
      "componentType": 5126,
      "count": 114,
      "max": [
        31.083017349243164,
        -7.886991500854492,
        50.963592529296875
      ],
      "min": [
        -31.486597061157227,
        -11.429219245910645,
        17.3114070892334
      ],
      "type": "VEC3"
    },
    {
      "bufferView": 2,
      "byteOffset": 9024,
      "componentType": 5126,
      "count": 114,
      "max": [
        0.22226795554161072,
        -0.9749855995178223,
        4.430075289240842e-17
      ],
      "min": [
        -0.21611705422401428,
        -0.9998024702072144,
        -1.6698092531794017e-16
      ],
      "type": "VEC3"
    },
    {
      "bufferView": 1,
      "byteOffset": 2552,
      "componentType": 5126,
      "count": 114,
      "max": [
        64.63357543945313,
        33.652183532714844
      ],
      "min": [
        0.5246317982673645,
        0.0
      ],
      "type": "VEC2"
    },
    {
      "bufferView": 0,
      "byteOffset": 4008,
      "componentType": 5125,
      "count": 624,
      "type": "SCALAR"
    },
    {
      "bufferView": 2,
      "byteOffset": 10392,
      "componentType": 5126,
      "count": 122,
      "max": [
        27.93733787536621,
        -5.094496250152588,
        31.279752731323242
      ],
      "min": [
        -28.332674026489258,
        -9.952913284301758,
        17.4958553314209
      ],
      "type": "VEC3"
    },
    {
      "bufferView": 2,
      "byteOffset": 11856,
      "componentType": 5126,
      "count": 122,
      "max": [
        0.3268035352230072,
        0.9999953508377075,
        0.9780604839324951
      ],
      "min": [
        -0.33262401819229126,
        -0.9999953508377075,
        -0.8486261367797852
      ],
      "type": "VEC3"
    },
    {
      "bufferView": 1,
      "byteOffset": 3464,
      "componentType": 5126,
      "count": 122,
      "max": [
        28.306493759155273,
        0.7356982231140137
      ],
      "min": [
        -28.3115234375,
        -60.7237548828125
      ],
      "type": "VEC2"
    },
    {
      "bufferView": 0,
      "byteOffset": 6504,
      "componentType": 5125,
      "count": 408,
      "type": "SCALAR"
    },
    {
      "bufferView": 2,
      "byteOffset": 13320,
      "componentType": 5126,
      "count": 856,
      "max": [
        2.298676013946533,
        -0.368174284696579,
        34.013999938964844
      ],
      "min": [
        -2.3197970390319824,
        -4.200089454650879,
        1.309000015258789
      ],
      "type": "VEC3"
    },
    {
      "bufferView": 2,
      "byteOffset": 23592,
      "componentType": 5126,
      "count": 856,
      "max": [
        1.0,
        0.9999993443489075,
        1.0
      ],
      "min": [
        -1.0,
        -1.0,
        -1.0
      ],
      "type": "VEC3"
    },
    {
      "bufferView": 1,
      "byteOffset": 4440,
      "componentType": 5126,
      "count": 856,
      "max": [
        7.38956880569458,
        33.97687911987305
      ],
      "min": [
        -6.098626136779785,
        -1.6422348022460938
      ],
      "type": "VEC2"
    },
    {
      "bufferView": 0,
      "byteOffset": 8136,
      "componentType": 5125,
      "count": 4494,
      "type": "SCALAR"
    },
    {
      "bufferView": 2,
      "byteOffset": 33864,
      "componentType": 5126,
      "count": 339,
      "max": [
        1.4794973134994507,
        -3.2639999389648438,
        29.177520751953125
      ],
      "min": [
        -1.159627079963684,
        -5.432276248931885,
        21.143835067749023
      ],
      "type": "VEC3"
    },
    {
      "bufferView": 2,
      "byteOffset": 37932,
      "componentType": 5126,
      "count": 339,
      "max": [
        0.9996727108955383,
        1.0,
        0.9988601207733154
      ],
      "min": [
        -0.9948725700378418,
        -1.0,
        -0.9596434831619263
      ],
      "type": "VEC3"
    },
    {
      "bufferView": 1,
      "byteOffset": 11288,
      "componentType": 5126,
      "count": 339,
      "max": [
        4.148544788360596,
        5.566069602966309
      ],
      "min": [
        -18.06548309326172,
        -1.1023675203323364
      ],
      "type": "VEC2"
    },
    {
      "bufferView": 0,
      "byteOffset": 26112,
      "componentType": 5125,
      "count": 1554,
      "type": "SCALAR"
    },
    {
      "bufferView": 2,
      "byteOffset": 42000,
      "componentType": 5126,
      "count": 393,
      "max": [
        20.847532272338867,
        0.13058948516845703,
        2.256999969482422
      ],
      "min": [
        -20.840694427490234,
        -11.670730590820313,
        -1.1102230246251565e-16
      ],
      "type": "VEC3"
    },
    {
      "bufferView": 2,
      "byteOffset": 46716,
      "componentType": 5126,
      "count": 393,
      "max": [
        0.5958290100097656,
        1.0,
        1.0
      ],
      "min": [
        -0.5958637595176697,
        -1.0,
        -1.0
      ],
      "type": "VEC3"
    },
    {
      "bufferView": 1,
      "byteOffset": 14000,
      "componentType": 5126,
      "count": 393,
      "max": [
        20.844114303588867,
        5.117339134216309
      ],
      "min": [
        -20.844114303588867,
        -6.806964874267578
      ],
      "type": "VEC2"
    },
    {
      "bufferView": 0,
      "byteOffset": 32328,
      "componentType": 5125,
      "count": 1362,
      "type": "SCALAR"
    }
  ],
  "asset": {
    "extras": {
      "author": "Domo (https://sketchfab.com/ldoxl)",
      "license": "CC-BY-4.0 (http://creativecommons.org/licenses/by/4.0/)",
      "source": "https://sketchfab.com/3d-models/monitor-curvo-46cf5c9d19f94ab79a4fcc15e482fe49",
      "title": "Monitor Curvo"
    },
    "generator": "Sketchfab-17.1.0",
    "version": "2.0"
  },
  "bufferViews": [
    {
      "buffer": 0,
      "byteLength": 37776,
      "name": "floatBufferViews",
      "target": 34963
    },
    {
      "buffer": 0,
      "byteLength": 17144,
      "byteOffset": 37776,
      "byteStride": 8,
      "name": "floatBufferViews",
      "target": 34962
    },
    {
      "buffer": 0,
      "byteLength": 51432,
      "byteOffset": 54920,
      "byteStride": 12,
      "name": "floatBufferViews",
      "target": 34962
    }
  ],
  "buffers": [
    {
      "byteLength": 106352,
      "uri": "scene.bin"
    }
  ],
  "extensionsUsed": [
    "KHR_materials_specular"
  ],
  "materials": [
    {
      "doubleSided": true,
      "name": "Body2__0",
      "pbrMetallicRoughness": {
        "baseColorFactor": [
          0.0,
          0.0,
          0.0,
          1.0
        ],
        "metallicFactor": 0.0,
        "roughnessFactor": 0.6
      }
    },
    {
      "doubleSided": true,
      "extensions": {
        "KHR_materials_specular": {
          "specularColorFactor": [
            1.0,
            1.0,
            1.0
          ],
          "specularFactor": 0.09600029257232022
        }
      },
      "name": "Paint_-_Enamel_Glossy_White",
      "pbrMetallicRoughness": {
        "baseColorFactor": [
          0.0,
          0.0,
          0.0,
          1.0
        ],
        "metallicFactor": 0.0,
        "roughnessFactor": 0.9577051494623774
      }
    },
    {
      "doubleSided": true,
      "name": "Powder_Coat_-_Rough_Dark_Grey",
      "pbrMetallicRoughness": {
        "baseColorFactor": [
          0.0,
          0.0,
          0.0,
          1.0
        ],
        "metallicFactor": 0.0,
        "roughnessFactor": 0.9577051494623774
      }
    },
    {
      "doubleSided": true,
      "name": "Paint_-_Enamel_Glossy_Dark_Grey",
      "pbrMetallicRoughness": {
        "baseColorFactor": [
          0.0,
          0.0,
          0.0,
          1.0
        ],
        "metallicFactor": 0.0,
        "roughnessFactor": 0.9577051494623774
      }
    }
  ],
  "meshes": [
    {
      "name": "Body2__0",
      "primitives": [
        {
          "attributes": {
            "NORMAL": 1,
            "POSITION": 0,
            "TEXCOORD_0": 2
          },
          "indices": 3,
          "material": 0,
          "mode": 4
        }
      ]
    },
    {
      "name": "Body2_Paint - Enamel Glossy (White)_0",
      "primitives": [
        {
          "attributes": {
            "NORMAL": 5,
            "POSITION": 4,
            "TEXCOORD_0": 6
          },
          "indices": 7,
          "material": 1,
          "mode": 4
        }
      ]
    },
    {
      "name": "Body7_Powder Coat - Rough (Dark Grey)_0",
      "primitives": [
        {
          "attributes": {
            "NORMAL": 9,
            "POSITION": 8,
            "TEXCOORD_0": 10
          },
          "indices": 11,
          "material": 2,
          "mode": 4
        }
      ]
    },
    {
      "name": "Body8_Powder Coat - Rough (Dark Grey)_0",
      "primitives": [
        {
          "attributes": {
            "NORMAL": 13,
            "POSITION": 12,
            "TEXCOORD_0": 14
          },
          "indices": 15,
          "material": 2,
          "mode": 4
        }
      ]
    },
    {
      "name": "Body11_Paint - Enamel Glossy (Dark Grey)_0",
      "primitives": [
        {
          "attributes": {
            "NORMAL": 17,
            "POSITION": 16,
            "TEXCOORD_0": 18
          },
          "indices": 19,
          "material": 3,
          "mode": 4
        }
      ]
    },
    {
      "name": "Body12_Powder Coat - Rough (Dark Grey)_0",
      "primitives": [
        {
          "attributes": {
            "NORMAL": 21,
            "POSITION": 20,
            "TEXCOORD_0": 22
          },
          "indices": 23,
          "material": 2,
          "mode": 4
        }
      ]
    }
  ],
  "nodes": [
    {
      "children": [
        1
      ],
      "matrix": [
        1.0,
        1.6081226229577294e-16,
        -1.608122622957729e-16,
        0.0,
        1.6081226229577292e-16,
        -1.0,
        -4.440892098500626e-16,
        0.0,
        -1.6081226229577292e-16,
        4.440892098500626e-16,
        -1.0,
        0.0,
        0.0,
        0.0,
        0.0,
        1.0
      ],
      "name": "Sketchfab_model"
    },
    {
      "children": [
        2
      ],
      "matrix": [
        0.009999999776482582,
        0.0,
        0.0,
        0.0,
        0.0,
        0.0,
        0.009999999776482582,
        0.0,
        0.0,
        -0.009999999776482582,
        0.0,
        0.0,
        0.0,
        0.0,
        0.0,
        1.0
      ],
      "name": "2d961308dddd4bbfbd49be42beaa4e2c.fbx"
    },
    {
      "children": [
        3
      ],
      "name": "RootNode"
    },
    {
      "children": [
        4,
        7,
        9,
        11,
        13
      ],
      "name": "Monitor curvo v2"
    },
    {
      "children": [
        5,
        6
      ],
      "name": "Body2"
    },
    {
      "mesh": 0,
      "name": "Body2__0"
    },
    {
      "mesh": 1,
      "name": "Body2_Paint - Enamel Glossy (White)_0"
    },
    {
      "children": [
        8
      ],
      "name": "Body7"
    },
    {
      "mesh": 2,
      "name": "Body7_Powder Coat - Rough (Dark Grey)_0"
    },
    {
      "children": [
        10
      ],
      "name": "Body8"
    },
    {
      "mesh": 3,
      "name": "Body8_Powder Coat - Rough (Dark Grey)_0"
    },
    {
      "children": [
        12
      ],
      "name": "Body11"
    },
    {
      "mesh": 4,
      "name": "Body11_Paint - Enamel Glossy (Dark Grey)_0"
    },
    {
      "children": [
        14
      ],
      "name": "Body12"
    },
    {
      "mesh": 5,
      "name": "Body12_Powder Coat - Rough (Dark Grey)_0"
    }
  ],
  "scene": 0,
  "scenes": [
    {
      "name": "Sketchfab_Scene",
      "nodes": [
        0
      ]
    }
  ]
}
