{
  "accessors": [
    {
      "bufferView": 2,
      "componentType": 5126,
      "count": 2240,
      "max": [
        0.009924291633069515,
        -0.05775158852338791,
        0.0009748889715410769
      ],
      "min": [
        -0.010485230013728142,
        -0.07264465093612671,
        -0.00171828200109303
      ],
      "type": "VEC3"
    },
    {
      "bufferView": 2,
      "byteOffset": 26880,
      "componentType": 5126,
      "count": 2240,
      "max": [
        0.9999929070472717,
        0.9999958872795105,
        0.9999955892562866
      ],
      "min": [
        -0.9999929070472717,
        -0.9999924898147583,
        -0.9999914169311523
      ],
      "type": "VEC3"
    },
    {
      "bufferView": 1,
      "componentType": 5126,
      "count": 2240,
      "max": [
        0.0,
        1.0
      ],
      "min": [
        0.0,
        1.0
      ],
      "type": "VEC2"
    },
    {
      "bufferView": 0,
      "componentType": 5125,
      "count": 5088,
      "type": "SCALAR"
    },
    {
      "bufferView": 2,
      "byteOffset": 53760,
      "componentType": 5126,
      "count": 266,
      "max": [
        0.03487180918455124,
        0.0537753701210022,
        0.0011721840128302574
      ],
      "min": [
        -0.034705281257629395,
        -0.023164860904216766,
        0.0005979780107736588
      ],
      "type": "VEC3"
    },
    {
      "bufferView": 2,
      "byteOffset": 56952,
      "componentType": 5126,
      "count": 266,
      "max": [
        0.7244845032691956,
        0.7161124348640442,
        1.0
      ],
      "min": [
        -0.6911224126815796,
        -0.7167038917541504,
        -0.96178138256073
      ],
      "type": "VEC3"
    },
    {
      "bufferView": 1,
      "byteOffset": 17920,
      "componentType": 5126,
      "count": 266,
      "max": [
        0.0,
        0.0
      ],
      "min": [
        0.0,
        0.0
      ],
      "type": "VEC2"
    },
    {
      "bufferView": 0,
      "byteOffset": 20352,
      "componentType": 5125,
      "count": 1344,
      "type": "SCALAR"
    },
    {
      "bufferView": 2,
      "byteOffset": 60144,
      "componentType": 5126,
      "count": 180,
      "max": [
        0.037012629210948944,
        0.055927570909261703,
        0.00033038199762813747
      ],
      "min": [
        -0.0368461012840271,
        -0.02531706914305687,
        -0.0007247480098158121
      ],
      "type": "VEC3"
    },
    {
      "bufferView": 2,
      "byteOffset": 62304,
      "componentType": 5126,
      "count": 180,
      "max": [
        1.0,
        0.9992207288742065,
        0.0
      ],
      "min": [
        -0.9992372989654541,
        -0.9992210865020752,
        -1.0
      ],
      "type": "VEC3"
    },
    {
      "bufferView": 1,
      "byteOffset": 20048,
      "componentType": 5126,
      "count": 180,
      "max": [
        0.0,
        0.0
      ],
      "min": [
        0.0,
        0.0
      ],
      "type": "VEC2"
    },
    {
      "bufferView": 0,
      "byteOffset": 25728,
      "componentType": 5125,
      "count": 414,
      "type": "SCALAR"
    },
    {
      "bufferView": 2,
      "byteOffset": 64464,
      "componentType": 5126,
      "count": 12086,
      "max": [
        0.02844928950071335,
        0.04382156953215599,
        0.0013854500139132142
      ],
      "min": [
        -0.028282759711146355,
        -0.013211069628596306,
        0.0003303780104033649
      ],
      "type": "VEC3"
    },
    {
      "bufferView": 2,
      "byteOffset": 209496,
      "componentType": 5126,
      "count": 12086,
      "max": [
        1.0,
        1.0,
        1.0
      ],
      "min": [
        -1.0,
        -1.0,
        -1.0
      ],
      "type": "VEC3"
    },
    {
      "bufferView": 1,
      "byteOffset": 21488,
      "componentType": 5126,
      "count": 12086,
      "max": [
        0.0,
        0.0
      ],
      "min": [
        0.0,
        0.0
      ],
      "type": "VEC2"
    },
    {
      "bufferView": 0,
      "byteOffset": 27384,
      "componentType": 5125,
      "count": 56598,
      "type": "SCALAR"
    },
    {
      "bufferView": 2,
      "byteOffset": 354528,
      "componentType": 5126,
      "count": 1115,
      "max": [
        0.01292824000120163,
        0.04328351840376854,
        0.001312613021582365
      ],
      "min": [
        -0.027747569605708122,
        -0.012673020362854004,
        0.0013061159988865256
      ],
      "type": "VEC3"
    },
    {
      "bufferView": 2,
      "byteOffset": 367908,
      "componentType": 5126,
      "count": 1115,
      "max": [
        1.3340400073502678e-05,
        3.854770056932466e-06,
        1.0
      ],
      "min": [
        -1.3013899661018513e-05,
        -0.07693516463041306,
        0.9970360994338989
      ],
      "type": "VEC3"
    },
    {
      "bufferView": 1,
      "byteOffset": 118176,
      "componentType": 5126,
      "count": 1115,
      "max": [
        0.0,
        0.0
      ],
      "min": [
        0.0,
        0.0
      ],
      "type": "VEC2"
    },
    {
      "bufferView": 0,
      "byteOffset": 253776,
      "componentType": 5125,
      "count": 3303,
      "type": "SCALAR"
    },
    {
      "bufferView": 2,
      "byteOffset": 381288,
      "componentType": 5126,
      "count": 531,
      "max": [
        0.027914099395275116,
        0.04328351840376854,
        0.001162171014584601
      ],
      "min": [
        -0.027747569605708122,
        -0.012673020362854004,
        0.001162171014584601
      ],
      "type": "VEC3"
    },
    {
      "bufferView": 2,
      "byteOffset": 387660,
      "componentType": 5126,
      "count": 531,
      "max": [
        6.903249868628336e-06,
        1.0634099680828513e-06,
        1.0
      ],
      "min": [
        -4.295250164432218e-06,
        -1.7203100242113578e-06,
        1.0
      ],
      "type": "VEC3"
    },
    {
      "bufferView": 1,
      "byteOffset": 127096,
      "componentType": 5126,
      "count": 531,
      "max": [
        0.0,
        0.0
      ],
      "min": [
        0.0,
        0.0
      ],
      "type": "VEC2"
    },
    {
      "bufferView": 0,
      "byteOffset": 266988,
      "componentType": 5125,
      "count": 1704,
      "type": "SCALAR"
    },
    {
      "bufferView": 2,
      "byteOffset": 394032,
      "componentType": 5126,
      "count": 44,
      "max": [
        0.037012629210948944,
        0.055927570909261703,
        -0.0007247439934872091
      ],
      "min": [
        -0.0368461012840271,
        -0.02531706914305687,
        -0.0007247480098158121
      ],
      "type": "VEC3"
    },
    {
      "bufferView": 2,
      "byteOffset": 394560,
      "componentType": 5126,
      "count": 44,
      "max": [
        2.0496800061664544e-06,
        8.786579996922228e-07,
        -1.0
      ],
      "min": [
        -6.707909960823599e-07,
        -8.571560101700015e-07,
        -1.0
      ],
      "type": "VEC3"
    },
    {
      "bufferView": 1,
      "byteOffset": 131344,
      "componentType": 5126,
      "count": 44,
      "max": [
        0.0,
        0.0
      ],
      "min": [
        0.0,
        0.0
      ],
      "type": "VEC2"
    },
    {
      "bufferView": 0,
      "byteOffset": 273804,
      "componentType": 5125,
      "count": 126,
      "type": "SCALAR"
    },
    {
      "bufferView": 2,
      "byteOffset": 395088,
      "componentType": 5126,
      "count": 192,
      "max": [
        0.008391857147216797,
        -0.0241809394210577,
        4.952100061927922e-05
      ],
      "min": [
        -0.00902783777564764,
        -0.059830840677022934,
        -1.1362700206518639e-05
      ],
      "type": "VEC3"
    },
    {
      "bufferView": 2,
      "byteOffset": 397392,
      "componentType": 5126,
      "count": 192,
      "max": [
        0.9485387206077576,
        0.9101313948631287,
        1.0
      ],
      "min": [
        -0.9485387206077576,
        -0.9101492762565613,
        -1.0
      ],
      "type": "VEC3"
    },
    {
      "bufferView": 1,
      "byteOffset": 131696,
      "componentType": 5126,
      "count": 192,
      "max": [
        1.0,
        1.0
      ],
      "min": [
        0.0,
        0.0
      ],
      "type": "VEC2"
    },
    {
      "bufferView": 0,
      "byteOffset": 274308,
      "componentType": 5125,
      "count": 288,
      "type": "SCALAR"
    },
    {
      "bufferView": 2,
      "byteOffset": 399696,
      "componentType": 5126,
      "count": 24,
      "max": [
        0.008799076080322266,
        -0.02432768978178501,
        -5.8657798945205286e-05
      ],
      "min": [
        -0.009349583648145199,
        -0.059835970401763916,
        -0.00032652198569849133
      ],
      "type": "VEC3"
    },
    {
      "bufferView": 2,
      "byteOffset": 399984,
      "componentType": 5126,
      "count": 24,
      "max": [
        1.0,
        1.0,
        1.0
      ],
      "min": [
        -1.0,
        -1.0,
        -1.0
      ],
      "type": "VEC3"
    },
    {
      "bufferView": 1,
      "byteOffset": 133232,
      "componentType": 5126,
      "count": 24,
      "max": [
        1.0,
        1.0
      ],
      "min": [
        0.0,
        0.0
      ],
      "type": "VEC2"
    },
    {
      "bufferView": 0,
      "byteOffset": 275460,
      "componentType": 5125,
      "count": 36,
      "type": "SCALAR"
    }
  ],
  "asset": {
    "extras": {
      "author": "Robótica Paraná (https://sketchfab.com/roboticaparana)",
      "license": "CC-BY-4.0 (http://creativecommons.org/licenses/by/4.0/)",
      "source": "https://sketchfab.com/3d-models/teclado-matricial-de-membrana-abab272fa8a7451386944b64e03618ca",
      "title": "Teclado Matricial de Membrana"
    },
    "generator": "Sketchfab-16.16.0",
    "version": "2.0"
  },
  "bufferViews": [
    {
      "buffer": 0,
      "byteLength": 275604,
      "name": "floatBufferViews",
      "target": 34963
    },
    {
      "buffer": 0,
      "byteLength": 133424,
      "byteOffset": 275604,
      "byteStride": 8,
      "name": "floatBufferViews",
      "target": 34962
    },
    {
      "buffer": 0,
      "byteLength": 400272,
      "byteOffset": 409028,
      "byteStride": 12,
      "name": "floatBufferViews",
      "target": 34962
    }
  ],
  "buffers": [
    {
      "byteLength": 809300,
      "uri": "scene.bin"
    }
  ],
  "materials": [
    {
      "doubleSided": true,
      "name": "PlasticoPreto.032",
      "pbrMetallicRoughness": {
        "baseColorFactor": [
          0.0,
          0.0,
          0.0,
          1.0
        ],
        "metallicFactor": 0.0,
        "roughnessFactor": 0.0
      }
    },
    {
      "doubleSided": true,
      "name": "BRANCO.007",
      "pbrMetallicRoughness": {
        "baseColorFactor": [
          0.8,
          0.8,
          0.8,
          1.0
        ],
        "metallicFactor": 0.0,
        "roughnessFactor": 0.6
      }
    },
    {
      "doubleSided": true,
      "name": "preto",
      "pbrMetallicRoughness": {
        "baseColorFactor": [
          0.0,
          0.0,
          0.0,
          1.0
        ],
        "metallicFactor": 0.0,
        "roughnessFactor": 0.0
      }
    },
    {
      "doubleSided": true,
      "name": "LED.008",
      "pbrMetallicRoughness": {
        "baseColorFactor": [
          0.8,
          0.8,
          0.8,
          1.0
        ],
        "metallicFactor": 0.0,
        "roughnessFactor": 0.0
      }
    },
    {
      "doubleSided": true,
      "name": "Azul_Servo.009",
      "pbrMetallicRoughness": {
        "baseColorFactor": [
          0.05144010000000002,
          0.12386299999999997,
          0.5070679999999997,
          1.0
        ],
        "metallicFactor": 0.0,
        "roughnessFactor": 0.0
      }
    },
    {
      "doubleSided": true,
      "name": "Vermelgo_Fio.019",
      "pbrMetallicRoughness": {
        "baseColorFactor": [
          0.4969209999999997,
          0.006823469999999992,
          0.012409099999999954,
          1.0
        ],
        "metallicFactor": 0.0,
        "roughnessFactor": 0.0
      }
    },
    {
      "doubleSided": true,
      "name": "Bramco.006",
      "pbrMetallicRoughness": {
        "baseColorFactor": [
          0.969921,
          0.969921,
          0.969921,
          1.0
        ],
        "metallicFactor": 0.0,
        "roughnessFactor": 0.6
      }
    },
    {
      "doubleSided": true,
      "name": "fita",
      "pbrMetallicRoughness": {
        "baseColorFactor": [
          0.342382,
          0.342382,
          0.342382,
          1.0
        ],
        "metallicFactor": 0.0,
        "roughnessFactor": 0.0
      }
    },
    {
      "doubleSided": true,
      "name": "cabo_fita",
      "pbrMetallicRoughness": {
        "baseColorFactor": [
          0.8,
          0.8,
          0.8,
          1.0
        ],
        "metallicFactor": 0.0,
        "roughnessFactor": 0.6
      }
    }
  ],
  "meshes": [
    {
      "name": "PlasticoPreto_032-material",
      "primitives": [
        {
          "attributes": {
            "NORMAL": 1,
            "POSITION": 0,
            "TEXCOORD_0": 2
          },
          "indices": 3,
          "material": 0,
          "mode": 4
        }
      ]
    },
    {
      "name": "_BRANCO_007-material",
      "primitives": [
        {
          "attributes": {
            "NORMAL": 5,
            "POSITION": 4,
            "TEXCOORD_0": 6
          },
          "indices": 7,
          "material": 1,
          "mode": 4
        }
      ]
    },
    {
      "name": "preto_teclado-material",
      "primitives": [
        {
          "attributes": {
            "NORMAL": 9,
            "POSITION": 8,
            "TEXCOORD_0": 10
          },
          "indices": 11,
          "material": 2,
          "mode": 4
        }
      ]
    },
    {
      "name": "LED_008-material",
      "primitives": [
        {
          "attributes": {
            "NORMAL": 13,
            "POSITION": 12,
            "TEXCOORD_0": 14
          },
          "indices": 15,
          "material": 3,
          "mode": 4
        }
      ]
    },
    {
      "name": "Azul_Servo_009-material",
      "primitives": [
        {
          "attributes": {
            "NORMAL": 17,
            "POSITION": 16,
            "TEXCOORD_0": 18
          },
          "indices": 19,
          "material": 4,
          "mode": 4
        }
      ]
    },
    {
      "name": "Vermelgo_Fio_019-material",
      "primitives": [
        {
          "attributes": {
            "NORMAL": 21,
            "POSITION": 20,
            "TEXCOORD_0": 22
          },
          "indices": 23,
          "material": 5,
          "mode": 4
        }
      ]
    },
    {
      "name": "Bramco_006-material",
      "primitives": [
        {
          "attributes": {
            "NORMAL": 25,
            "POSITION": 24,
            "TEXCOORD_0": 26
          },
          "indices": 27,
          "material": 6,
          "mode": 4
        }
      ]
    },
    {
      "name": "fita-material",
      "primitives": [
        {
          "attributes": {
            "NORMAL": 29,
            "POSITION": 28,
            "TEXCOORD_0": 30
          },
          "indices": 31,
          "material": 7,
          "mode": 4
        }
      ]
    },
    {
      "name": "cabo_fita-material",
      "primitives": [
        {
          "attributes": {
            "NORMAL": 33,
            "POSITION": 32,
            "TEXCOORD_0": 34
          },
          "indices": 35,
          "material": 8,
          "mode": 4
        }
      ]
    }
  ],
  "nodes": [
    {
      "children": [
        1
      ],
      "matrix": [
        1.0,
        0.0,
        0.0,
        0.0,
        0.0,
        2.220446049250313e-16,
        -1.0,
        0.0,
        0.0,
        1.0,
        2.220446049250313e-16,
        0.0,
        0.0,
        0.0,
        0.0,
        1.0
      ],
      "name": "Sketchfab_model"
    },
    {
      "children": [
        2
      ],
      "name": "Collada visual scene group"
    },
    {
      "children": [
        3,
        4,
        5,
        6,
        7,
        8,
        9,
        10,
        11
      ],
      "name": "Teclado"
    },
    {
      "mesh": 0,
      "name": "PlasticoPreto_032-material"
    },
    {
      "mesh": 1,
      "name": "_BRANCO_007-material"
    },
    {
      "mesh": 2,
      "name": "preto_teclado-material"
    },
    {
      "mesh": 3,
      "name": "LED_008-material"
    },
    {
      "mesh": 4,
      "name": "Azul_Servo_009-material"
    },
    {
      "mesh": 5,
      "name": "Vermelgo_Fio_019-material"
    },
    {
      "mesh": 6,
      "name": "Bramco_006-material"
    },
    {
      "mesh": 7,
      "name": "fita-material"
    },
    {
      "mesh": 8,
      "name": "cabo_fita-material"
    }
  ],
  "scene": 0,
  "scenes": [
    {
      "name": "Sketchfab_Scene",
      "nodes": [
        0
      ]
    }
  ]
}
