{
  "accessors": [
    {
      "bufferView": 2,
      "componentType": 5126,
      "count": 6263,
      "max": [
        0.7111660242080688,
        0.05405370146036148,
        0.7898849844932556
      ],
      "min": [
        -0.7137010097503662,
        -0.0066420999355614185,
        0.38700398802757263
      ],
      "type": "VEC3"
    },
    {
      "bufferView": 2,
      "byteOffset": 75156,
      "componentType": 5126,
      "count": 6263,
      "max": [
        0.9803717732429504,
        1.0,
        0.9868406653404236
      ],
      "min": [
        -0.9803717732429504,
        0.15869493782520294,
        -0.9873276352882385
      ],
      "type": "VEC3"
    },
    {
      "bufferView": 3,
      "componentType": 5126,
      "count": 6263,
      "max": [
        1.0,
        0.9773585200309753,
        0.7541680335998535,
        1.0
      ],
      "min": [
        -0.9970498085021973,
        -0.9872429370880127,
        -1.0,
        1.0
      ],
      "type": "VEC4"
    },
    {
      "bufferView": 1,
      "componentType": 5126,
      "count": 6263,
      "max": [
        0.9758250117301941,
        0.9994999766349792
      ],
      "min": [
        0.00046155299060046673,
        0.000499500019941479
      ],
      "type": "VEC2"
    },
    {
      "bufferView": 0,
      "componentType": 5125,
      "count": 15060,
      "type": "SCALAR"
    },
    {
      "bufferView": 2,
      "byteOffset": 150312,
      "componentType": 5126,
      "count": 1027,
      "max": [
        0.7376199960708618,
        0.03313570097088814,
        1.0
      ],
      "min": [
        -0.7376199960708618,
        -0.05405370146036148,
        -1.0
      ],
      "type": "VEC3"
    },
    {
      "bufferView": 2,
      "byteOffset": 162636,
      "componentType": 5126,
      "count": 1027,
      "max": [
        1.0,
        0.999809980392456,
        0.999969482421875
      ],
      "min": [
        -1.0,
        -0.9690840244293213,
        -1.0
      ],
      "type": "VEC3"
    },
    {
      "bufferView": 3,
      "byteOffset": 100208,
      "componentType": 5126,
      "count": 1027,
      "max": [
        1.0,
        1.0,
        0.8871086239814758,
        1.0
      ],
      "min": [
        -0.9590105414390564,
        -1.0,
        -0.999809980392456,
        -1.0
      ],
      "type": "VEC4"
    },
    {
      "bufferView": 1,
      "byteOffset": 50104,
      "componentType": 5126,
      "count": 1027,
      "max": [
        0.9980080127716064,
        0.9692879915237427
      ],
      "min": [
        0.001992030069231987,
        0.0019347099587321281
      ],
      "type": "VEC2"
    },
    {
      "bufferView": 0,
      "byteOffset": 60240,
      "componentType": 5125,
      "count": 3006,
      "type": "SCALAR"
    }
  ],
  "asset": {
    "extras": {
      "author": "ElliotGriffiths (https://sketchfab.com/ElliotGriffiths24)",
      "license": "CC-BY-4.0 (http://creativecommons.org/licenses/by/4.0/)",
      "source": "https://sketchfab.com/3d-models/corsair-strafe-rgb-dc170f71703644f9a675ebba196af617",
      "title": "Corsair Strafe RGB"
    },
    "generator": "Sketchfab-12.67.0",
    "version": "2.0"
  },
  "bufferViews": [
    {
      "buffer": 0,
      "byteLength": 72264,
      "name": "floatBufferViews",
      "target": 34963
    },
    {
      "buffer": 0,
      "byteLength": 58320,
      "byteOffset": 72264,
      "byteStride": 8,
      "name": "floatBufferViews",
      "target": 34962
    },
    {
      "buffer": 0,
      "byteLength": 174960,
      "byteOffset": 130584,
      "byteStride": 12,
      "name": "floatBufferViews",
      "target": 34962
    },
    {
      "buffer": 0,
      "byteLength": 116640,
      "byteOffset": 305544,
      "byteStride": 16,
      "name": "floatBufferViews",
      "target": 34962
    }
  ],
  "buffers": [
    {
      "byteLength": 422184,
      "uri": "scene.bin"
    }
  ],
  "images": [
    {
      "uri": "textures/Body1_baseColor.jpeg"
    },
    {
      "uri": "textures/Body1_metallicRoughness.png"
    },
    {
      "uri": "textures/Body1_emissive.jpeg"
    },
    {
      "uri": "textures/Body1_normal.png"
    },
    {
      "uri": "textures/Keys1_baseColor.jpeg"
    },
    {
      "uri": "textures/Keys1_metallicRoughness.png"
    },
    {
      "uri": "textures/Keys1_emissive.jpeg"
    },
    {
      "uri": "textures/Keys1_normal.png"
    }
  ],
  "materials": [
    {
      "doubleSided": true,
      "emissiveFactor": [
        1.0,
        1.0,
        1.0
      ],
      "emissiveTexture": {
        "index": 2
      },
      "name": "Body1",
      "normalTexture": {
        "index": 3
      },
      "occlusionTexture": {
        "index": 1
      },
      "pbrMetallicRoughness": {
        "baseColorTexture": {
          "index": 0
        },
        "metallicRoughnessTexture": {
          "index": 1
        }
      }
    },
    {
      "doubleSided": true,
      "emissiveFactor": [
        1.0,
        1.0,
        1.0
      ],
      "emissiveTexture": {
        "index": 6
      },
      "name": "Keys1",
      "normalTexture": {
        "index": 7
      },
      "occlusionTexture": {
        "index": 5
      },
      "pbrMetallicRoughness": {
        "baseColorTexture": {
          "index": 4
        },
        "metallicRoughnessTexture": {
          "index": 5
        }
      }
    }
  ],
  "meshes": [
    {
      "name": "defaultMaterial",
      "primitives": [
        {
          "attributes": {
            "NORMAL": 1,
            "POSITION": 0,
            "TANGENT": 2,
            "TEXCOORD_0": 3
          },
          "indices": 4,
          "material": 1,
          "mode": 4
        }
      ]
    },
    {
      "name": "defaultMaterial",
      "primitives": [
        {
          "attributes": {
            "NORMAL": 6,
            "POSITION": 5,
            "TANGENT": 7,
            "TEXCOORD_0": 8
          },
          "indices": 9,
          "material": 0,
          "mode": 4
        }
      ]
    }
  ],
  "nodes": [
    {
      "children": [
        1
      ],
      "matrix": [
        1.0,
        0.0,
        0.0,
        0.0,
        0.0,
        2.220446049250313e-16,
        -1.0,
        0.0,
        0.0,
        1.0,
        2.220446049250313e-16,
        0.0,
        0.0,
        0.0,
        0.0,
        1.0
      ],
      "name": "Sketchfab_model"
    },
    {
      "children": [
        2,
        4
      ],
      "matrix": [
        1.0,
        0.0,
        0.0,
        0.0,
        0.0,
        -4.371139006309477e-08,
        0.999999999999999,
        0.0,
        0.0,
        -0.999999999999999,
        -4.371139006309477e-08,
        0.0,
        0.0,
        0.0,
        0.0,
        1.0
      ],
      "name": "Collada visual scene group"
    },
    {
      "children": [
        3
      ],
      "name": "Keyboard"
    },
    {
      "mesh": 0,
      "name": "defaultMaterial"
    },
    {
      "children": [
        5
      ],
      "name": "Keyboard"
    },
    {
      "mesh": 1,
      "name": "defaultMaterial"
    }
  ],
  "samplers": [
    {
      "magFilter": 9729,
      "minFilter": 9987,
      "wrapS": 10497,
      "wrapT": 10497
    }
  ],
  "scene": 0,
  "scenes": [
    {
      "name": "Sketchfab_Scene",
      "nodes": [
        0
      ]
    }
  ],
  "textures": [
    {
      "sampler": 0,
      "source": 0
    },
    {
      "sampler": 0,
      "source": 1
    },
    {
      "sampler": 0,
      "source": 2
    },
    {
      "sampler": 0,
      "source": 3
    },
    {
      "sampler": 0,
      "source": 4
    },
    {
      "sampler": 0,
      "source": 5
    },
    {
      "sampler": 0,
      "source": 6
    },
    {
      "sampler": 0,
      "source": 7
    }
  ]
}
