{
  "accessors": [
    {
      "bufferView": 2,
      "componentType": 5126,
      "count": 515,
      "max": [
        0.2821676731109619,
        0.023056337609887123,
        0.24948275089263916
      ],
      "min": [
        -0.2821676731109619,
        -0.04743852838873863,
        -0.12203077971935272
      ],
      "type": "VEC3"
    },
    {
      "bufferView": 2,
      "byteOffset": 6180,
      "componentType": 5126,
      "count": 515,
      "max": [
        1.0,
        0.9998940229415894,
        1.0
      ],
      "min": [
        -1.0,
        -1.0,
        -1.0
      ],
      "type": "VEC3"
    },
    {
      "bufferView": 1,
      "componentType": 5126,
      "count": 515,
      "max": [
        1.000012993812561,
        1.0
      ],
      "min": [
        0.0,
        0.0
      ],
      "type": "VEC2"
    },
    {
      "bufferView": 0,
      "componentType": 5125,
      "count": 1848,
      "type": "SCALAR"
    },
    {
      "bufferView": 2,
      "byteOffset": 12360,
      "componentType": 5126,
      "count": 231,
      "max": [
        0.19713231921195984,
        0.10248453915119171,
        0.055151406675577164
      ],
      "min": [
        -0.19713231921195984,
        -0.008065314032137394,
        -0.20402027666568756
      ],
      "type": "VEC3"
    },
    {
      "bufferView": 2,
      "byteOffset": 15132,
      "componentType": 5126,
      "count": 231,
      "max": [
        0.8920484185218811,
        0.9999980330467224,
        1.0
      ],
      "min": [
        -1.0,
        -0.9995246529579163,
        -0.999202311038971
      ],
      "type": "VEC3"
    },
    {
      "bufferView": 1,
      "byteOffset": 4120,
      "componentType": 5126,
      "count": 231,
      "max": [
        0.7440476417541504,
        0.8690476417541504
      ],
      "min": [
        0.0,
        0.0
      ],
      "type": "VEC2"
    },
    {
      "bufferView": 0,
      "byteOffset": 7392,
      "componentType": 5125,
      "count": 615,
      "type": "SCALAR"
    },
    {
      "bufferView": 2,
      "byteOffset": 17904,
      "componentType": 5126,
      "count": 92,
      "max": [
        0.04510662332177162,
        0.03602055460214615,
        0.05705628544092178
      ],
      "min": [
        -0.045106612145900726,
        0.011286438442766666,
        0.012452949769794941
      ],
      "type": "VEC3"
    },
    {
      "bufferView": 2,
      "byteOffset": 19008,
      "componentType": 5126,
      "count": 92,
      "max": [
        0.8819608688354492,
        1.0,
        0.976730227470398
      ],
      "min": [
        -0.8819604516029358,
        -0.9925316572189331,
        -0.999751627445221
      ],
      "type": "VEC3"
    },
    {
      "bufferView": 1,
      "byteOffset": 5968,
      "componentType": 5126,
      "count": 92,
      "max": [
        0.75,
        0.875
      ],
      "min": [
        0.2499999701976776,
        0.3749999403953552
      ],
      "type": "VEC2"
    },
    {
      "bufferView": 0,
      "byteOffset": 9852,
      "componentType": 5125,
      "count": 216,
      "type": "SCALAR"
    }
  ],
  "asset": {
    "extras": {
      "author": "Gasidech.P (https://sketchfab.com/Gasidech)",
      "license": "CC-BY-4.0 (http://creativecommons.org/licenses/by/4.0/)",
      "source": "https://sketchfab.com/3d-models/pc-monitor-5e1ac737b6574f428dbde1f8969d3a8c",
      "title": "PC Monitor"
    },
    "generator": "Sketchfab-13.81.0",
    "version": "2.0"
  },
  "bufferViews": [
    {
      "buffer": 0,
      "byteLength": 10716,
      "name": "floatBufferViews",
      "target": 34963
    },
    {
      "buffer": 0,
      "byteLength": 6704,
      "byteOffset": 10716,
      "byteStride": 8,
      "name": "floatBufferViews",
      "target": 34962
    },
    {
      "buffer": 0,
      "byteLength": 20112,
      "byteOffset": 17420,
      "byteStride": 12,
      "name": "floatBufferViews",
      "target": 34962
    }
  ],
  "buffers": [
    {
      "byteLength": 37532,
      "uri": "scene.bin"
    }
  ],
  "materials": [
    {
      "doubleSided": true,
      "name": "Material.001",
      "pbrMetallicRoughness": {
        "baseColorFactor": [
          0.0514106,
          0.0514106,
          0.0514106,
          1.0
        ],
        "metallicFactor": 0.0,
        "roughnessFactor": 0.988504240363595
      }
    }
  ],
  "meshes": [
    {
      "name": "MONITOR_Material.001_0",
      "primitives": [
        {
          "attributes": {
            "NORMAL": 1,
            "POSITION": 0,
            "TEXCOORD_0": 2
          },
          "indices": 3,
          "material": 0,
          "mode": 4
        }
      ]
    },
    {
      "name": "Cube_Material.001_0",
      "primitives": [
        {
          "attributes": {
            "NORMAL": 5,
            "POSITION": 4,
            "TEXCOORD_0": 6
          },
          "indices": 7,
          "material": 0,
          "mode": 4
        }
      ]
    },
    {
      "name": "Cube.001_Material.001_0",
      "primitives": [
        {
          "attributes": {
            "NORMAL": 9,
            "POSITION": 8,
            "TEXCOORD_0": 10
          },
          "indices": 11,
          "material": 0,
          "mode": 4
        }
      ]
    }
  ],
  "nodes": [
    {
      "children": [
        1
      ],
      "matrix": [
        1.0,
        0.0,
        0.0,
        0.0,
        0.0,
        2.220446049250313e-16,
        -1.0,
        0.0,
        0.0,
        1.0,
        2.220446049250313e-16,
        0.0,
        0.0,
        0.0,
        0.0,
        1.0
      ],
      "name": "Sketchfab_model"
    },
    {
      "children": [
        2
      ],
      "matrix": [
        0.009999999776482582,
        0.0,
        0.0,
        0.0,
        0.0,
        0.0,
        0.009999999776482582,
        0.0,
        0.0,
        -0.009999999776482582,
        0.0,
        0.0,
        0.0,
        0.0,
        0.0,
        1.0
      ],
      "name": "bc0cf86a33ed477eb34f979270ddd556.fbx"
    },
    {
      "children": [
        3
      ],
      "name": "RootNode"
    },
    {
      "children": [
        4,
        5,
        7
      ],
      "matrix": [
        100.0,
        0.0,
        0.0,
        0.0,
        0.0,
        -1.629206793918314e-05,
        -99.99999999999868,
        0.0,
        0.0,
        99.99999999999868,
        -1.629206793918314e-05,
        0.0,
        0.0,
        20.556936264038086,
        0.0,
        1.0
      ],
      "name": "MONITOR"
    },
    {
      "mesh": 0,
      "name": "MONITOR_Material.001_0"
    },
    {
      "children": [
        6
      ],
      "matrix": [
        1.0,
        0.0,
        0.0,
        0.0,
        0.0,
        1.0,
        -2.646977960169688e-23,
        0.0,
        0.0,
        2.646977960169688e-23,
        1.0,
        0.0,
        0.0,
        0.0,
        0.0,
        1.0
      ],
      "name": "Cube"
    },
    {
      "mesh": 1,
      "name": "Cube_Material.001_0"
    },
    {
      "children": [
        8
      ],
      "matrix": [
        1.0,
        0.0,
        0.0,
        0.0,
        0.0,
        1.0,
        -2.646977960169688e-23,
        0.0,
        0.0,
        2.646977960169688e-23,
        1.0,
        0.0,
        0.0,
        0.0,
        0.0,
        1.0
      ],
      "name": "Cube.001"
    },
    {
      "mesh": 2,
      "name": "Cube.001_Material.001_0"
    }
  ],
  "scene": 0,
  "scenes": [
    {
      "name": "Sketchfab_Scene",
      "nodes": [
        0
      ]
    }
  ]
}
