{
  "accessors": [
    {
      "bufferView": 2,
      "componentType": 5126,
      "count": 5508,
      "max": [
        0.4207293689250946,
        -0.01877313293516636,
        -0.15393385291099548
      ],
      "min": [
        -0.09043804556131363,
        -0.0858159288764,
        -0.467050164937973
      ],
      "type": "VEC3"
    },
    {
      "bufferView": 2,
      "byteOffset": 66096,
      "componentType": 5126,
      "count": 5508,
      "max": [
        0.9580416083335876,
        0.9999953508377075,
        0.989727258682251
      ],
      "min": [
        -0.9987856149673462,
        -0.29867324233055115,
        -0.9923847913742065
      ],
      "type": "VEC3"
    },
    {
      "bufferView": 1,
      "componentType": 5126,
      "count": 5508,
      "max": [
        0.8928227424621582,
        0.919691801071167
      ],
      "min": [
        0.05066069960594177,
        0.046815354377031326
      ],
      "type": "VEC2"
    },
    {
      "bufferView": 1,
      "byteOffset": 44064,
      "componentType": 5126,
      "count": 5508,
      "max": [
        0.8928227424621582,
        0.919691801071167
      ],
      "min": [
        0.05066069960594177,
        0.046815354377031326
      ],
      "type": "VEC2"
    },
    {
      "bufferView": 1,
      "byteOffset": 88128,
      "componentType": 5126,
      "count": 5508,
      "max": [
        0.8928227424621582,
        0.919691801071167
      ],
      "min": [
        0.05066069960594177,
        0.046815354377031326
      ],
      "type": "VEC2"
    },
    {
      "bufferView": 0,
      "componentType": 5125,
      "count": 28590,
      "type": "SCALAR"
    }
  ],
  "asset": {
    "extras": {
      "author": "Mel (https://sketchfab.com/melhogue)",
      "license": "CC-BY-NC-SA-4.0 (http://creativecommons.org/licenses/by-nc-sa/4.0/)",
      "source": "https://sketchfab.com/3d-models/office-equipment-8330f503f918426087a5860c442f1d3f",
      "title": "Office equipment"
    },
    "generator": "Sketchfab-15.36.0",
    "version": "2.0"
  },
  "bufferViews": [
    {
      "buffer": 0,
      "byteLength": 114360,
      "name": "floatBufferViews",
      "target": 34963
    },
    {
      "buffer": 0,
      "byteLength": 132192,
      "byteOffset": 114360,
      "byteStride": 8,
      "name": "floatBufferViews",
      "target": 34962
    },
    {
      "buffer": 0,
      "byteLength": 132192,
      "byteOffset": 246552,
      "byteStride": 12,
      "name": "floatBufferViews",
      "target": 34962
    }
  ],
  "buffers": [
    {
      "byteLength": 378744,
      "uri": "scene.bin"
    }
  ],
  "extensionsUsed": [
    "KHR_materials_unlit"
  ],
  "images": [
    {
      "uri": "textures/material_0_baseColor.jpeg"
    }
  ],
  "materials": [
    {
      "extensions": {
        "KHR_materials_unlit": {}
      },
      "name": "material_0",
      "pbrMetallicRoughness": {
        "baseColorTexture": {
          "index": 0
        },
        "metallicFactor": 0.0
      }
    }
  ],
  "meshes": [
    {
      "name": "Object_0",
      "primitives": [
        {
          "attributes": {
            "NORMAL": 1,
            "POSITION": 0,
            "TEXCOORD_0": 2,
            "TEXCOORD_1": 3,
            "TEXCOORD_2": 4
          },
          "indices": 5,
          "material": 0,
          "mode": 4
        }
      ]
    }
  ],
  "nodes": [
    {
      "children": [
        1
      ],
      "matrix": [
        1.0,
        0.0,
        0.0,
        0.0,
        0.0,
        2.220446049250313e-16,
        -1.0,
        0.0,
        0.0,
        1.0,
        2.220446049250313e-16,
        0.0,
        0.0,
        0.0,
        0.0,
        1.0
      ],
      "name": "Sketchfab_model"
    },
    {
      "children": [
        2
      ],
      "name": "root"
    },
    {
      "children": [
        3
      ],
      "matrix": [
        1.0,
        0.0,
        0.0,
        0.0,
        0.0,
        2.220446049250313e-16,
        1.0,
        0.0,
        0.0,
        -1.0,
        2.220446049250313e-16,
        0.0,
        0.0,
        0.0,
        0.0,
        1.0
      ],
      "name": "GLTF_SceneRootNode"
    },
    {
      "children": [
        4
      ],
      "name": "_0"
    },
    {
      "mesh": 0,
      "name": "Object_4"
    }
  ],
  "samplers": [
    {
      "magFilter": 9729,
      "minFilter": 9987,
      "wrapS": 10497,
      "wrapT": 10497
    }
  ],
  "scene": 0,
  "scenes": [
    {
      "name": "Sketchfab_Scene",
      "nodes": [
        0
      ]
    }
  ],
  "textures": [
    {
      "sampler": 0,
      "source": 0
    }
  ]
}
